<svg id="_x31_px" enable-background="new 0 0 24 24" height="512" viewBox="0 0 24 24" width="512" xmlns="http://www.w3.org/2000/svg"><path d="m12 23c-6.065 0-11-4.935-11-11s4.935-11 11-11c6.065 0 11 3.813 11 8.5 0 3.584-2.916 6.5-6.5 6.5h-2.25c-.414 0-.75.336-.75.75 0 .181.074.376.22.556.487.601.78 1.363.78 2.194 0 1.93-1.57 3.5-3.5 3.5zm0-21c-5.514 0-10 4.486-10 10s4.486 10 10 10c1.378 0 2.5-1.122 2.5-2.5 0-.589-.21-1.133-.56-1.566-.288-.356-.44-.769-.44-1.184 0-.965.785-1.75 1.75-1.75h2.25c3.033 0 5.5-2.467 5.5-5.5 0-4.136-4.486-7.5-10-7.5z"/><circle cx="6.5" cy="11.5" r="1.5"/><circle cx="9.5" cy="7" r="1.5"/><circle cx="14.5" cy="7" r="1.5"/><circle cx="17.5" cy="11.5" r="1.5"/></svg>
