<svg width="760" height="520" viewBox="0 0 760 520" xmlns="http://www.w3.org/2000/svg"><defs>
<linearGradient id="gearFace" x1="0" y1="0" x2="0" y2="1"><stop offset="0" stop-color="#e9eef2"></stop><stop offset="1" stop-color="#bcc7d0"></stop></linearGradient>
<linearGradient id="hubFace" x1="0" y1="0" x2="0" y2="1"><stop offset="0" stop-color="#d2dae1"></stop><stop offset="1" stop-color="#aab5bd"></stop></linearGradient>
<linearGradient id="cylBody" x1="0" y1="0" x2="0" y2="1"><stop offset="0" stop-color="#cfd8df"></stop><stop offset="0.5" stop-color="#eef3f6"></stop><stop offset="1" stop-color="#9fabb4"></stop></linearGradient>
<linearGradient id="flangeFace" x1="0" y1="0" x2="1" y2="0"><stop offset="0" stop-color="#e3e9ee"></stop><stop offset="1" stop-color="#b6c1ca"></stop></linearGradient>
<linearGradient id="blockFront" x1="0" y1="0" x2="0" y2="1"><stop offset="0" stop-color="#cdd5db"></stop><stop offset="1" stop-color="#aeb8c0"></stop></linearGradient>
<pattern id="hatch" width="8" height="8" patternUnits="userSpaceOnUse" patternTransform="rotate(45)"><line x1="0" y1="0" x2="0" y2="8" stroke="#3f6b78" stroke-width="1.3"></line></pattern>
</defs><clipPath id="cut"><rect x="0" y="0" width="468" height="520"></rect></clipPath><g clip-path="url(#cut)"><polygon points="150.0,412.0 670.0,412.0 714.0,386.0 194.0,386.0" fill="#c4ccd3" stroke="#8a949c" stroke-width="1"></polygon><polygon points="670.0,452.0 670.0,412.0 714.0,386.0 714.0,426.0" fill="#9aa4ac" stroke="#727c84" stroke-width="1"></polygon><polygon points="150.0,452.0 670.0,452.0 670.0,412.0 150.0,412.0" fill="url(#blockFront)" stroke="#727c84" stroke-width="1.1"></polygon><ellipse cx="234.4" cy="399" rx="13" ry="7.5" fill="#7c868e" stroke="#5d666d" stroke-width="0.8"></ellipse><ellipse cx="234.4" cy="399" rx="7" ry="4" fill="#5b646b"></ellipse><ellipse cx="432" cy="399" rx="13" ry="7.5" fill="#7c868e" stroke="#5d666d" stroke-width="0.8"></ellipse><ellipse cx="432" cy="399" rx="7" ry="4" fill="#5b646b"></ellipse><ellipse cx="629.6" cy="399" rx="13" ry="7.5" fill="#7c868e" stroke="#5d666d" stroke-width="0.8"></ellipse><ellipse cx="629.6" cy="399" rx="7" ry="4" fill="#5b646b"></ellipse><rect x="340" y="260" width="260" height="80" fill="url(#cylBody)"></rect><line x1="340" y1="260" x2="600" y2="260" stroke="#5e6a74" stroke-width="1"></line><line x1="340" y1="340" x2="600" y2="340" stroke="#6e7a84" stroke-width="1"></line><ellipse cx="638" cy="300" rx="18" ry="72" fill="#8c98a3" stroke="#5e6a74" stroke-width="1"></ellipse><path d="M 612 372 L 638 372 A 18 72 0 0 1 638 228 L 612 228 A 18 72 0 0 0 612 372 Z" fill="#a7b2bb"></path><ellipse cx="612" cy="300" rx="18" ry="72" fill="url(#flangeFace)" stroke="#4a5560" stroke-width="1.2"></ellipse><ellipse cx="620.289548946026" cy="319.47091711543254" rx="5" ry="9" fill="#46505a" stroke="#333b42" stroke-width="0.7"></ellipse><ellipse cx="608.4952349192222" cy="346.05304970014424" rx="5" ry="9" fill="#46505a" stroke="#333b42" stroke-width="0.7"></ellipse><ellipse cx="603.710451053974" cy="280.5290828845675" rx="5" ry="9" fill="#46505a" stroke="#333b42" stroke-width="0.7"></ellipse><ellipse cx="615.5047650807778" cy="253.94695029985576" rx="5" ry="9" fill="#46505a" stroke="#333b42" stroke-width="0.7"></ellipse><ellipse cx="612" cy="300" rx="9" ry="26" fill="#3d454c" stroke="#2c3338" stroke-width="1"></ellipse><polygon points="466.0,274.0 485.6,281.3 485.6,281.0 464.5,286.2 460.1,298.1 475.3,308.9 475.4,308.7 452.9,309.4 443.1,319.8 452.3,333.2 452.6,333.0 430.9,329.2 416.5,337.1 419.0,351.7 419.3,351.5 400.5,343.5 383.1,348.2 378.5,362.5 378.9,362.5 364.8,351.0 346.0,352.0 334.8,364.7 335.2,364.7 327.2,351.0 308.9,348.2 292.2,358.0 292.6,358.1 291.5,343.5 275.5,337.1 254.9,343.1 255.2,343.3 261.1,329.2 248.9,319.8 226.5,321.4 226.7,321.7 239.1,309.4 231.9,298.1 209.8,295.1 209.9,295.4 227.5,286.2 226.0,274.0 206.4,266.7 206.4,267.0 227.5,261.8 231.9,249.9 216.7,239.1 216.6,239.3 239.1,238.6 248.9,228.2 239.7,214.8 239.4,215.0 261.1,218.8 275.5,210.9 273.0,196.3 272.7,196.5 291.5,204.5 308.9,199.8 313.5,185.5 313.1,185.5 327.2,197.0 346.0,196.0 357.2,183.3 356.8,183.3 364.8,197.0 383.1,199.8 399.8,190.0 399.4,189.9 400.5,204.5 416.5,210.9 437.1,204.9 436.8,204.7 430.9,218.8 443.1,228.2 465.5,226.6 465.3,226.3 452.9,238.6 460.1,249.9 482.2,252.9 482.1,252.6 464.5,261.8" fill="#9aa6b0" stroke="#5e6a74" stroke-width="1"></polygon><polygon points="420.0,300.0 439.6,307.3 439.6,307.0 418.5,312.2 414.1,324.1 429.3,334.9 429.4,334.7 406.9,335.4 397.1,345.8 406.3,359.2 406.6,359.0 384.9,355.2 370.5,363.1 373.0,377.7 373.3,377.5 354.5,369.5 337.1,374.2 332.5,388.5 332.9,388.5 318.8,377.0 300.0,378.0 288.8,390.7 289.2,390.7 281.2,377.0 262.9,374.2 246.2,384.0 246.6,384.1 245.5,369.5 229.5,363.1 208.9,369.1 209.2,369.3 215.1,355.2 202.9,345.8 180.5,347.4 180.7,347.7 193.1,335.4 185.9,324.1 163.8,321.1 163.9,321.4 181.5,312.2 180.0,300.0 160.4,292.7 160.4,293.0 181.5,287.8 185.9,275.9 170.7,265.1 170.6,265.3 193.1,264.6 202.9,254.2 193.7,240.8 193.4,241.0 215.1,244.8 229.5,236.9 227.0,222.3 226.7,222.5 245.5,230.5 262.9,225.8 267.5,211.5 267.1,211.5 281.2,223.0 300.0,222.0 311.2,209.3 310.8,209.3 318.8,223.0 337.1,225.8 353.8,216.0 353.4,215.9 354.5,230.5 370.5,236.9 391.1,230.9 390.8,230.7 384.9,244.8 397.1,254.2 419.5,252.6 419.3,252.3 406.9,264.6 414.1,275.9 436.2,278.9 436.1,278.6 418.5,287.8" fill="url(#gearFace)" stroke="#4a5560" stroke-width="1.2"></polygon><ellipse cx="346" cy="274" rx="54" ry="35" fill="#8c98a3" stroke="#5e6a74" stroke-width="1"></ellipse><ellipse cx="300" cy="300" rx="54" ry="35" fill="url(#hubFace)" stroke="#4a5560" stroke-width="1.1"></ellipse><ellipse cx="346" cy="274" rx="26" ry="17" fill="#5b656e"></ellipse><ellipse cx="300" cy="300" rx="26" ry="17" fill="#3d454c" stroke="#2c3338" stroke-width="1"></ellipse><rect x="294" y="270" width="12" height="13" rx="1" fill="#3d454c" stroke="#2c3338" stroke-width="0.8"></rect></g><polygon points="468,452 468,412 512,386 512,426" fill="url(#hatch)" stroke="#2f4f59" stroke-width="1.3"></polygon><polygon points="468,452 468,412 512,386 512,426" fill="#5fa3b3" fill-opacity="0.32"></polygon><ellipse cx="468" cy="300" rx="16" ry="40" fill="url(#hatch)" stroke="#2f4f59" stroke-width="1.4"></ellipse><ellipse cx="468" cy="300" rx="16" ry="40" fill="#5fa3b3" fill-opacity="0.32"></ellipse><ellipse cx="468" cy="300" rx="7" ry="16" fill="#eef2f6"></ellipse><ellipse cx="468" cy="300" rx="7" ry="16" fill="none" stroke="#2f4f59" stroke-width="1.1"></ellipse></svg>